<svg xmlns="http://www.w3.org/2000/svg" width="1150" height="723" viewBox="0 0 1150 723"><rect width="100%" height="100%" fill="white"/><text x="30" y="47" font-family="Arial,sans-serif" font-size="27" fill="#172033" font-weight="700">Source-linked fields and review concerns</text><text x="30" y="75" font-family="Arial,sans-serif" font-size="16" fill="#475569" font-weight="400">Percent of unique (record, populated root-field) pairs linked to a source type that also receive each review flag.</text><text x="317" y="113" font-family="Arial,sans-serif" font-size="13" fill="#172033" font-weight="700">Completeness</text><text x="462" y="113" font-family="Arial,sans-serif" font-size="13" fill="#172033" font-weight="700">Consistency</text><text x="607" y="113" font-family="Arial,sans-serif" font-size="13" fill="#172033" font-weight="700">Accuracy</text><text x="752" y="113" font-family="Arial,sans-serif" font-size="13" fill="#172033" font-weight="700">Correctness</text><text x="897" y="113" font-family="Arial,sans-serif" font-size="13" fill="#172033" font-weight="700">Semantics</text><text x="30" y="157" font-family="Arial,sans-serif" font-size="15" fill="#172033" font-weight="400">DUA (n=36)</text><rect x="309" y="135" width="142" height="34" fill="#d2e4ec"/><text x="323" y="157" font-family="Arial,sans-serif" font-size="16" fill="#172033" font-weight="400">14</text><rect x="454" y="135" width="142" height="34" fill="#c1d9e4"/><text x="468" y="157" font-family="Arial,sans-serif" font-size="16" fill="#172033" font-weight="400">22</text><rect x="599" y="135" width="142" height="34" fill="#d8e8ee"/><text x="613" y="157" font-family="Arial,sans-serif" font-size="16" fill="#172033" font-weight="400">11</text><rect x="744" y="135" width="142" height="34" fill="#f0f7f9"/><text x="758" y="157" font-family="Arial,sans-serif" font-size="16" fill="#172033" font-weight="400">0</text><rect x="889" y="135" width="142" height="34" fill="#f0f7f9"/><text x="903" y="157" font-family="Arial,sans-serif" font-size="16" fill="#172033" font-weight="400">0</text><text x="30" y="194" font-family="Arial,sans-serif" font-size="15" fill="#172033" font-weight="400">IRB (n=128)</text><rect x="309" y="172" width="142" height="34" fill="#d2e4eb"/><text x="323" y="194" font-family="Arial,sans-serif" font-size="16" fill="#172033" font-weight="400">14</text><rect x="454" y="172" width="142" height="34" fill="#c3dae5"/><text x="468" y="194" font-family="Arial,sans-serif" font-size="16" fill="#172033" font-weight="400">21</text><rect x="599" y="172" width="142" height="34" fill="#d5e6ed"/><text x="613" y="194" font-family="Arial,sans-serif" font-size="16" fill="#172033" font-weight="400">12</text><rect x="744" y="172" width="142" height="34" fill="#e7f1f5"/><text x="758" y="194" font-family="Arial,sans-serif" font-size="16" fill="#172033" font-weight="400">4</text><rect x="889" y="172" width="142" height="34" fill="#e1edf2"/><text x="903" y="194" font-family="Arial,sans-serif" font-size="16" fill="#172033" font-weight="400">7</text><text x="30" y="231" font-family="Arial,sans-serif" font-size="15" fill="#172033" font-weight="400">NIH project page (n=147)</text><rect x="309" y="209" width="142" height="34" fill="#d4e5ec"/><text x="323" y="231" font-family="Arial,sans-serif" font-size="16" fill="#172033" font-weight="400">13</text><rect x="454" y="209" width="142" height="34" fill="#bfd8e3"/><text x="468" y="231" font-family="Arial,sans-serif" font-size="16" fill="#172033" font-weight="400">23</text><rect x="599" y="209" width="142" height="34" fill="#d1e4eb"/><text x="613" y="231" font-family="Arial,sans-serif" font-size="16" fill="#172033" font-weight="400">14</text><rect x="744" y="209" width="142" height="34" fill="#e0edf2"/><text x="758" y="231" font-family="Arial,sans-serif" font-size="16" fill="#172033" font-weight="400">7</text><rect x="889" y="209" width="142" height="34" fill="#ddebf0"/><text x="903" y="231" font-family="Arial,sans-serif" font-size="16" fill="#172033" font-weight="400">9</text><text x="30" y="268" font-family="Arial,sans-serif" font-size="15" fill="#172033" font-weight="400">RO-Crate (n=101)</text><rect x="309" y="246" width="142" height="34" fill="#b5d2df"/><text x="323" y="268" font-family="Arial,sans-serif" font-size="16" fill="#172033" font-weight="400">28</text><rect x="454" y="246" width="142" height="34" fill="#adccdb"/><text x="468" y="268" font-family="Arial,sans-serif" font-size="16" fill="#172033" font-weight="400">32</text><rect x="599" y="246" width="142" height="34" fill="#cadfe8"/><text x="613" y="268" font-family="Arial,sans-serif" font-size="16" fill="#172033" font-weight="400">18</text><rect x="744" y="246" width="142" height="34" fill="#dbe9ef"/><text x="758" y="268" font-family="Arial,sans-serif" font-size="16" fill="#172033" font-weight="400">10</text><rect x="889" y="246" width="142" height="34" fill="#d4e5ed"/><text x="903" y="268" font-family="Arial,sans-serif" font-size="16" fill="#172033" font-weight="400">13</text><text x="30" y="305" font-family="Arial,sans-serif" font-size="15" fill="#172033" font-weight="400">data resource (n=352)</text><rect x="309" y="283" width="142" height="34" fill="#b8d3e0"/><text x="323" y="305" font-family="Arial,sans-serif" font-size="16" fill="#172033" font-weight="400">26</text><rect x="454" y="283" width="142" height="34" fill="#b4d1de"/><text x="468" y="305" font-family="Arial,sans-serif" font-size="16" fill="#172033" font-weight="400">28</text><rect x="599" y="283" width="142" height="34" fill="#d7e7ee"/><text x="613" y="305" font-family="Arial,sans-serif" font-size="16" fill="#172033" font-weight="400">12</text><rect x="744" y="283" width="142" height="34" fill="#e1edf2"/><text x="758" y="305" font-family="Arial,sans-serif" font-size="16" fill="#172033" font-weight="400">7</text><rect x="889" y="283" width="142" height="34" fill="#d3e5ec"/><text x="903" y="305" font-family="Arial,sans-serif" font-size="16" fill="#172033" font-weight="400">13</text><text x="30" y="342" font-family="Arial,sans-serif" font-size="15" fill="#172033" font-weight="400">documentation (n=419)</text><rect x="309" y="320" width="142" height="34" fill="#c7dde7"/><text x="323" y="342" font-family="Arial,sans-serif" font-size="16" fill="#172033" font-weight="400">19</text><rect x="454" y="320" width="142" height="34" fill="#c1d9e4"/><text x="468" y="342" font-family="Arial,sans-serif" font-size="16" fill="#172033" font-weight="400">22</text><rect x="599" y="320" width="142" height="34" fill="#d5e6ed"/><text x="613" y="342" font-family="Arial,sans-serif" font-size="16" fill="#172033" font-weight="400">13</text><rect x="744" y="320" width="142" height="34" fill="#e4eff3"/><text x="758" y="342" font-family="Arial,sans-serif" font-size="16" fill="#172033" font-weight="400">5</text><rect x="889" y="320" width="142" height="34" fill="#deecf1"/><text x="903" y="342" font-family="Arial,sans-serif" font-size="16" fill="#172033" font-weight="400">8</text><text x="30" y="379" font-family="Arial,sans-serif" font-size="15" fill="#172033" font-weight="400">historical data release (n=72)</text><rect x="309" y="357" width="142" height="34" fill="#b2d0dd"/><text x="323" y="379" font-family="Arial,sans-serif" font-size="16" fill="#172033" font-weight="400">29</text><rect x="454" y="357" width="142" height="34" fill="#98bfd2"/><text x="468" y="379" font-family="Arial,sans-serif" font-size="16" fill="#172033" font-weight="400">42</text><rect x="599" y="357" width="142" height="34" fill="#d8e8ee"/><text x="613" y="379" font-family="Arial,sans-serif" font-size="16" fill="#172033" font-weight="400">11</text><rect x="744" y="357" width="142" height="34" fill="#e4eff3"/><text x="758" y="379" font-family="Arial,sans-serif" font-size="16" fill="#172033" font-weight="400">6</text><rect x="889" y="357" width="142" height="34" fill="#d8e8ee"/><text x="903" y="379" font-family="Arial,sans-serif" font-size="16" fill="#172033" font-weight="400">11</text><text x="30" y="416" font-family="Arial,sans-serif" font-size="15" fill="#172033" font-weight="400">historical documentation (n=83)</text><rect x="309" y="394" width="142" height="34" fill="#c2dae4"/><text x="323" y="416" font-family="Arial,sans-serif" font-size="16" fill="#172033" font-weight="400">22</text><rect x="454" y="394" width="142" height="34" fill="#c7dde7"/><text x="468" y="416" font-family="Arial,sans-serif" font-size="16" fill="#172033" font-weight="400">19</text><rect x="599" y="394" width="142" height="34" fill="#c7dde7"/><text x="613" y="416" font-family="Arial,sans-serif" font-size="16" fill="#172033" font-weight="400">19</text><rect x="744" y="394" width="142" height="34" fill="#cee2ea"/><text x="758" y="416" font-family="Arial,sans-serif" font-size="16" fill="#172033" font-weight="400">16</text><rect x="889" y="394" width="142" height="34" fill="#d6e6ed"/><text x="903" y="416" font-family="Arial,sans-serif" font-size="16" fill="#172033" font-weight="400">12</text><text x="30" y="453" font-family="Arial,sans-serif" font-size="15" fill="#172033" font-weight="400">license (n=39)</text><rect x="309" y="431" width="142" height="34" fill="#dae9ef"/><text x="323" y="453" font-family="Arial,sans-serif" font-size="16" fill="#172033" font-weight="400">10</text><rect x="454" y="431" width="142" height="34" fill="#afcedc"/><text x="468" y="453" font-family="Arial,sans-serif" font-size="16" fill="#172033" font-weight="400">31</text><rect x="599" y="431" width="142" height="34" fill="#cadfe8"/><text x="613" y="453" font-family="Arial,sans-serif" font-size="16" fill="#172033" font-weight="400">18</text><rect x="744" y="431" width="142" height="34" fill="#cadfe8"/><text x="758" y="453" font-family="Arial,sans-serif" font-size="16" fill="#172033" font-weight="400">18</text><rect x="889" y="431" width="142" height="34" fill="#dae9ef"/><text x="903" y="453" font-family="Arial,sans-serif" font-size="16" fill="#172033" font-weight="400">10</text><text x="30" y="490" font-family="Arial,sans-serif" font-size="15" fill="#172033" font-weight="400">preprint (n=102)</text><rect x="309" y="468" width="142" height="34" fill="#c6dce6"/><text x="323" y="490" font-family="Arial,sans-serif" font-size="16" fill="#172033" font-weight="400">20</text><rect x="454" y="468" width="142" height="34" fill="#bad5e1"/><text x="468" y="490" font-family="Arial,sans-serif" font-size="16" fill="#172033" font-weight="400">25</text><rect x="599" y="468" width="142" height="34" fill="#d5e6ed"/><text x="613" y="490" font-family="Arial,sans-serif" font-size="16" fill="#172033" font-weight="400">13</text><rect x="744" y="468" width="142" height="34" fill="#ebf4f7"/><text x="758" y="490" font-family="Arial,sans-serif" font-size="16" fill="#172033" font-weight="400">2</text><rect x="889" y="468" width="142" height="34" fill="#d7e7ee"/><text x="903" y="490" font-family="Arial,sans-serif" font-size="16" fill="#172033" font-weight="400">12</text><text x="30" y="527" font-family="Arial,sans-serif" font-size="15" fill="#172033" font-weight="400">publication (n=179)</text><rect x="309" y="505" width="142" height="34" fill="#b6d2df"/><text x="323" y="527" font-family="Arial,sans-serif" font-size="16" fill="#172033" font-weight="400">27</text><rect x="454" y="505" width="142" height="34" fill="#b3d1de"/><text x="468" y="527" font-family="Arial,sans-serif" font-size="16" fill="#172033" font-weight="400">28</text><rect x="599" y="505" width="142" height="34" fill="#d8e8ee"/><text x="613" y="527" font-family="Arial,sans-serif" font-size="16" fill="#172033" font-weight="400">11</text><rect x="744" y="505" width="142" height="34" fill="#eaf3f6"/><text x="758" y="527" font-family="Arial,sans-serif" font-size="16" fill="#172033" font-weight="400">3</text><rect x="889" y="505" width="142" height="34" fill="#e5f0f4"/><text x="903" y="527" font-family="Arial,sans-serif" font-size="16" fill="#172033" font-weight="400">5</text><text x="30" y="564" font-family="Arial,sans-serif" font-size="15" fill="#172033" font-weight="400">structured metadata (n=341)</text><rect x="309" y="542" width="142" height="34" fill="#cce0e9"/><text x="323" y="564" font-family="Arial,sans-serif" font-size="16" fill="#172033" font-weight="400">17</text><rect x="454" y="542" width="142" height="34" fill="#c7dde7"/><text x="468" y="564" font-family="Arial,sans-serif" font-size="16" fill="#172033" font-weight="400">19</text><rect x="599" y="542" width="142" height="34" fill="#ddebf0"/><text x="613" y="564" font-family="Arial,sans-serif" font-size="16" fill="#172033" font-weight="400">9</text><rect x="744" y="542" width="142" height="34" fill="#e1eef2"/><text x="758" y="564" font-family="Arial,sans-serif" font-size="16" fill="#172033" font-weight="400">7</text><rect x="889" y="542" width="142" height="34" fill="#e3eef3"/><text x="903" y="564" font-family="Arial,sans-serif" font-size="16" fill="#172033" font-weight="400">6</text><text x="30" y="601" font-family="Arial,sans-serif" font-size="15" fill="#172033" font-weight="400">tutorial (n=70)</text><rect x="309" y="579" width="142" height="34" fill="#b6d2df"/><text x="323" y="601" font-family="Arial,sans-serif" font-size="16" fill="#172033" font-weight="400">27</text><rect x="454" y="579" width="142" height="34" fill="#aacbda"/><text x="468" y="601" font-family="Arial,sans-serif" font-size="16" fill="#172033" font-weight="400">33</text><rect x="599" y="579" width="142" height="34" fill="#bfd8e3"/><text x="613" y="601" font-family="Arial,sans-serif" font-size="16" fill="#172033" font-weight="400">23</text><rect x="744" y="579" width="142" height="34" fill="#e0edf2"/><text x="758" y="601" font-family="Arial,sans-serif" font-size="16" fill="#172033" font-weight="400">7</text><rect x="889" y="579" width="142" height="34" fill="#d1e4eb"/><text x="903" y="601" font-family="Arial,sans-serif" font-size="16" fill="#172033" font-weight="400">14</text><text x="30" y="638" font-family="Arial,sans-serif" font-size="15" fill="#172033" font-weight="400">white paper (n=18)</text><rect x="309" y="616" width="142" height="34" fill="#cce0e9"/><text x="323" y="638" font-family="Arial,sans-serif" font-size="16" fill="#172033" font-weight="400">17</text><rect x="454" y="616" width="142" height="34" fill="#cce0e9"/><text x="468" y="638" font-family="Arial,sans-serif" font-size="16" fill="#172033" font-weight="400">17</text><rect x="599" y="616" width="142" height="34" fill="#e4eff3"/><text x="613" y="638" font-family="Arial,sans-serif" font-size="16" fill="#172033" font-weight="400">6</text><rect x="744" y="616" width="142" height="34" fill="#e4eff3"/><text x="758" y="638" font-family="Arial,sans-serif" font-size="16" fill="#172033" font-weight="400">6</text><rect x="889" y="616" width="142" height="34" fill="#d8e8ee"/><text x="903" y="638" font-family="Arial,sans-serif" font-size="16" fill="#172033" font-weight="400">11</text><text x="30" y="702" font-family="Arial,sans-serif" font-size="14" fill="#172033" font-weight="400">Association only: root-field joins cannot identify which source caused a concern; fields often cite several source types.</text></svg>