<svg xmlns="http://www.w3.org/2000/svg" width="1250" height="332"><rect width="100%" height="100%" fill="white"/><text x="30" y="47" font-family="Arial,sans-serif" font-size="27" fill="#172033" font-weight="700">Agreement on flagged fields differs from agreement on scores</text><text x="30" y="78" font-family="Arial,sans-serif" font-size="16" fill="#526277" font-weight="400">Mean positive-set Jaccard overlap (%). Type-aware = (review family, field); higher is more overlap.</text><text x="290" y="119" font-family="Arial,sans-serif" font-size="14" fill="#172033" font-weight="700">Cross: fields</text><text x="435" y="119" font-family="Arial,sans-serif" font-size="14" fill="#172033" font-weight="700">Cross: typed</text><text x="580" y="119" font-family="Arial,sans-serif" font-size="14" fill="#172033" font-weight="700">Repeat: fields</text><text x="725" y="119" font-family="Arial,sans-serif" font-size="14" fill="#172033" font-weight="700">Repeat: typed</text><text x="30" y="158" font-family="Arial,sans-serif" font-size="15" fill="#172033" font-weight="400">AI_READI</text><rect x="285" y="137" width="142" height="35" fill="#a6c9d2"/><text x="300" y="159" font-family="Arial,sans-serif" font-size="16" fill="#172033" font-weight="400">35.3</text><rect x="430" y="137" width="142" height="35" fill="#c9dce1"/><text x="445" y="159" font-family="Arial,sans-serif" font-size="16" fill="#172033" font-weight="400">19.6</text><rect x="575" y="137" width="142" height="35" fill="#529aad"/><text x="590" y="159" font-family="Arial,sans-serif" font-size="16" fill="white" font-weight="400">73.3</text><rect x="720" y="137" width="142" height="35" fill="#8dbac7"/><text x="735" y="159" font-family="Arial,sans-serif" font-size="16" fill="#172033" font-weight="400">46.8</text><text x="30" y="196" font-family="Arial,sans-serif" font-size="15" fill="#172033" font-weight="400">CHORUS</text><rect x="285" y="175" width="142" height="35" fill="#77aebe"/><text x="300" y="197" font-family="Arial,sans-serif" font-size="16" fill="#172033" font-weight="400">56.6</text><rect x="430" y="175" width="142" height="35" fill="#acccd5"/><text x="445" y="197" font-family="Arial,sans-serif" font-size="16" fill="#172033" font-weight="400">32.8</text><rect x="575" y="175" width="142" height="35" fill="#6ea9ba"/><text x="590" y="197" font-family="Arial,sans-serif" font-size="16" fill="#172033" font-weight="400">60.6</text><rect x="720" y="175" width="142" height="35" fill="#a2c6d0"/><text x="735" y="197" font-family="Arial,sans-serif" font-size="16" fill="#172033" font-weight="400">37.1</text><text x="30" y="234" font-family="Arial,sans-serif" font-size="15" fill="#172033" font-weight="400">CM4AI</text><rect x="285" y="213" width="142" height="35" fill="#a0c6d0"/><text x="300" y="235" font-family="Arial,sans-serif" font-size="16" fill="#172033" font-weight="400">37.9</text><rect x="430" y="213" width="142" height="35" fill="#cadde2"/><text x="445" y="235" font-family="Arial,sans-serif" font-size="16" fill="#172033" font-weight="400">18.9</text><rect x="575" y="213" width="142" height="35" fill="#70abbb"/><text x="590" y="235" font-family="Arial,sans-serif" font-size="16" fill="#172033" font-weight="400">59.6</text><rect x="720" y="213" width="142" height="35" fill="#a2c6d0"/><text x="735" y="235" font-family="Arial,sans-serif" font-size="16" fill="#172033" font-weight="400">37.2</text><text x="30" y="272" font-family="Arial,sans-serif" font-size="15" fill="#172033" font-weight="400">VOICE</text><rect x="285" y="251" width="142" height="35" fill="#adcdd5"/><text x="300" y="273" font-family="Arial,sans-serif" font-size="16" fill="#172033" font-weight="400">32.2</text><rect x="430" y="251" width="142" height="35" fill="#d6e3e7"/><text x="445" y="273" font-family="Arial,sans-serif" font-size="16" fill="#172033" font-weight="400">13.8</text><rect x="575" y="251" width="142" height="35" fill="#7cb1c0"/><text x="590" y="273" font-family="Arial,sans-serif" font-size="16" fill="#172033" font-weight="400">54.3</text><rect x="720" y="251" width="142" height="35" fill="#b6d2d9"/><text x="735" y="273" font-family="Arial,sans-serif" font-size="16" fill="#172033" font-weight="400">28.2</text><text x="30" y="319" font-family="Arial,sans-serif" font-size="14" fill="#172033" font-weight="400">Cross-rubric: 6 records/dataset. Repeat: 3 pairs of ratings on one fixed record/dataset. Overlap is not factual agreement.</text></svg>