<svg xmlns="http://www.w3.org/2000/svg" width="1250" height="674"><rect width="100%" height="100%" fill="white"/><text x="30" y="47" font-family="Arial,sans-serif" font-size="27" fill="#172033" font-weight="700">v8 review concerns across datasheet sections</text><text x="30" y="78" font-family="Arial,sans-serif" font-size="16" fill="#526277" font-weight="400">Unique records with at least one comment of each type in a section; denominator 12.</text><text x="290" y="119" font-family="Arial,sans-serif" font-size="14" fill="#172033" font-weight="700">Completeness</text><text x="435" y="119" font-family="Arial,sans-serif" font-size="14" fill="#172033" font-weight="700">Consistency</text><text x="580" y="119" font-family="Arial,sans-serif" font-size="14" fill="#172033" font-weight="700">Accuracy</text><text x="725" y="119" font-family="Arial,sans-serif" font-size="14" fill="#172033" font-weight="700">Correctness</text><text x="870" y="119" font-family="Arial,sans-serif" font-size="14" fill="#172033" font-weight="700">Semantics</text><text x="30" y="158" font-family="Arial,sans-serif" font-size="15" fill="#172033" font-weight="400">Collection</text><rect x="285" y="137" width="142" height="35" fill="#86b7c4"/><text x="300" y="159" font-family="Arial,sans-serif" font-size="16" fill="#172033" font-weight="400">6</text><rect x="430" y="137" width="142" height="35" fill="#3b8da4"/><text x="445" y="159" font-family="Arial,sans-serif" font-size="16" fill="white" font-weight="400">10</text><rect x="575" y="137" width="142" height="35" fill="#e2eaec"/><text x="590" y="159" font-family="Arial,sans-serif" font-size="16" fill="#172033" font-weight="400">1</text><rect x="720" y="137" width="142" height="35" fill="#f5f5f5"/><text x="735" y="159" font-family="Arial,sans-serif" font-size="16" fill="#172033" font-weight="400">0</text><rect x="865" y="137" width="142" height="35" fill="#bdd6dc"/><text x="880" y="159" font-family="Arial,sans-serif" font-size="16" fill="#172033" font-weight="400">3</text><text x="30" y="196" font-family="Arial,sans-serif" font-size="15" fill="#172033" font-weight="400">Composition</text><rect x="285" y="175" width="142" height="35" fill="#177994"/><text x="300" y="197" font-family="Arial,sans-serif" font-size="16" fill="white" font-weight="400">12</text><rect x="430" y="175" width="142" height="35" fill="#177994"/><text x="445" y="197" font-family="Arial,sans-serif" font-size="16" fill="white" font-weight="400">12</text><rect x="575" y="175" width="142" height="35" fill="#3b8da4"/><text x="590" y="197" font-family="Arial,sans-serif" font-size="16" fill="white" font-weight="400">10</text><rect x="720" y="175" width="142" height="35" fill="#abcbd4"/><text x="735" y="197" font-family="Arial,sans-serif" font-size="16" fill="#172033" font-weight="400">4</text><rect x="865" y="175" width="142" height="35" fill="#3b8da4"/><text x="880" y="197" font-family="Arial,sans-serif" font-size="16" fill="white" font-weight="400">10</text><text x="30" y="234" font-family="Arial,sans-serif" font-size="15" fill="#172033" font-weight="400">Data Governance</text><rect x="285" y="213" width="142" height="35" fill="#4e98ac"/><text x="300" y="235" font-family="Arial,sans-serif" font-size="16" fill="white" font-weight="400">9</text><rect x="430" y="213" width="142" height="35" fill="#177994"/><text x="445" y="235" font-family="Arial,sans-serif" font-size="16" fill="white" font-weight="400">12</text><rect x="575" y="213" width="142" height="35" fill="#73acbc"/><text x="590" y="235" font-family="Arial,sans-serif" font-size="16" fill="#172033" font-weight="400">7</text><rect x="720" y="213" width="142" height="35" fill="#bdd6dc"/><text x="735" y="235" font-family="Arial,sans-serif" font-size="16" fill="#172033" font-weight="400">3</text><rect x="865" y="213" width="142" height="35" fill="#abcbd4"/><text x="880" y="235" font-family="Arial,sans-serif" font-size="16" fill="#172033" font-weight="400">4</text><text x="30" y="272" font-family="Arial,sans-serif" font-size="15" fill="#172033" font-weight="400">Distribution</text><rect x="285" y="251" width="142" height="35" fill="#73acbc"/><text x="300" y="273" font-family="Arial,sans-serif" font-size="16" fill="#172033" font-weight="400">7</text><rect x="430" y="251" width="142" height="35" fill="#61a2b4"/><text x="445" y="273" font-family="Arial,sans-serif" font-size="16" fill="#172033" font-weight="400">8</text><rect x="575" y="251" width="142" height="35" fill="#d0e0e4"/><text x="590" y="273" font-family="Arial,sans-serif" font-size="16" fill="#172033" font-weight="400">2</text><rect x="720" y="251" width="142" height="35" fill="#abcbd4"/><text x="735" y="273" font-family="Arial,sans-serif" font-size="16" fill="#172033" font-weight="400">4</text><rect x="865" y="251" width="142" height="35" fill="#98c1cc"/><text x="880" y="273" font-family="Arial,sans-serif" font-size="16" fill="#172033" font-weight="400">5</text><text x="30" y="310" font-family="Arial,sans-serif" font-size="15" fill="#172033" font-weight="400">Ethics</text><rect x="285" y="289" width="142" height="35" fill="#73acbc"/><text x="300" y="311" font-family="Arial,sans-serif" font-size="16" fill="#172033" font-weight="400">7</text><rect x="430" y="289" width="142" height="35" fill="#4e98ac"/><text x="445" y="311" font-family="Arial,sans-serif" font-size="16" fill="white" font-weight="400">9</text><rect x="575" y="289" width="142" height="35" fill="#abcbd4"/><text x="590" y="311" font-family="Arial,sans-serif" font-size="16" fill="#172033" font-weight="400">4</text><rect x="720" y="289" width="142" height="35" fill="#e2eaec"/><text x="735" y="311" font-family="Arial,sans-serif" font-size="16" fill="#172033" font-weight="400">1</text><rect x="865" y="289" width="142" height="35" fill="#e2eaec"/><text x="880" y="311" font-family="Arial,sans-serif" font-size="16" fill="#172033" font-weight="400">1</text><text x="30" y="348" font-family="Arial,sans-serif" font-size="15" fill="#172033" font-weight="400">FileCollection</text><rect x="285" y="327" width="142" height="35" fill="#4e98ac"/><text x="300" y="349" font-family="Arial,sans-serif" font-size="16" fill="white" font-weight="400">9</text><rect x="430" y="327" width="142" height="35" fill="#abcbd4"/><text x="445" y="349" font-family="Arial,sans-serif" font-size="16" fill="#172033" font-weight="400">4</text><rect x="575" y="327" width="142" height="35" fill="#98c1cc"/><text x="590" y="349" font-family="Arial,sans-serif" font-size="16" fill="#172033" font-weight="400">5</text><rect x="720" y="327" width="142" height="35" fill="#e2eaec"/><text x="735" y="349" font-family="Arial,sans-serif" font-size="16" fill="#172033" font-weight="400">1</text><rect x="865" y="327" width="142" height="35" fill="#73acbc"/><text x="880" y="349" font-family="Arial,sans-serif" font-size="16" fill="#172033" font-weight="400">7</text><text x="30" y="386" font-family="Arial,sans-serif" font-size="15" fill="#172033" font-weight="400">Human</text><rect x="285" y="365" width="142" height="35" fill="#98c1cc"/><text x="300" y="387" font-family="Arial,sans-serif" font-size="16" fill="#172033" font-weight="400">5</text><rect x="430" y="365" width="142" height="35" fill="#177994"/><text x="445" y="387" font-family="Arial,sans-serif" font-size="16" fill="white" font-weight="400">12</text><rect x="575" y="365" width="142" height="35" fill="#73acbc"/><text x="590" y="387" font-family="Arial,sans-serif" font-size="16" fill="#172033" font-weight="400">7</text><rect x="720" y="365" width="142" height="35" fill="#f5f5f5"/><text x="735" y="387" font-family="Arial,sans-serif" font-size="16" fill="#172033" font-weight="400">0</text><rect x="865" y="365" width="142" height="35" fill="#d0e0e4"/><text x="880" y="387" font-family="Arial,sans-serif" font-size="16" fill="#172033" font-weight="400">2</text><text x="30" y="424" font-family="Arial,sans-serif" font-size="15" fill="#172033" font-weight="400">Maintenance</text><rect x="285" y="403" width="142" height="35" fill="#3b8da4"/><text x="300" y="425" font-family="Arial,sans-serif" font-size="16" fill="white" font-weight="400">10</text><rect x="430" y="403" width="142" height="35" fill="#4e98ac"/><text x="445" y="425" font-family="Arial,sans-serif" font-size="16" fill="white" font-weight="400">9</text><rect x="575" y="403" width="142" height="35" fill="#d0e0e4"/><text x="590" y="425" font-family="Arial,sans-serif" font-size="16" fill="#172033" font-weight="400">2</text><rect x="720" y="403" width="142" height="35" fill="#abcbd4"/><text x="735" y="425" font-family="Arial,sans-serif" font-size="16" fill="#172033" font-weight="400">4</text><rect x="865" y="403" width="142" height="35" fill="#abcbd4"/><text x="880" y="425" font-family="Arial,sans-serif" font-size="16" fill="#172033" font-weight="400">4</text><text x="30" y="462" font-family="Arial,sans-serif" font-size="15" fill="#172033" font-weight="400">Metadata</text><rect x="285" y="441" width="142" height="35" fill="#177994"/><text x="300" y="463" font-family="Arial,sans-serif" font-size="16" fill="white" font-weight="400">12</text><rect x="430" y="441" width="142" height="35" fill="#29839c"/><text x="445" y="463" font-family="Arial,sans-serif" font-size="16" fill="white" font-weight="400">11</text><rect x="575" y="441" width="142" height="35" fill="#29839c"/><text x="590" y="463" font-family="Arial,sans-serif" font-size="16" fill="white" font-weight="400">11</text><rect x="720" y="441" width="142" height="35" fill="#29839c"/><text x="735" y="463" font-family="Arial,sans-serif" font-size="16" fill="white" font-weight="400">11</text><rect x="865" y="441" width="142" height="35" fill="#4e98ac"/><text x="880" y="463" font-family="Arial,sans-serif" font-size="16" fill="white" font-weight="400">9</text><text x="30" y="500" font-family="Arial,sans-serif" font-size="15" fill="#172033" font-weight="400">Motivation</text><rect x="285" y="479" width="142" height="35" fill="#bdd6dc"/><text x="300" y="501" font-family="Arial,sans-serif" font-size="16" fill="#172033" font-weight="400">3</text><rect x="430" y="479" width="142" height="35" fill="#86b7c4"/><text x="445" y="501" font-family="Arial,sans-serif" font-size="16" fill="#172033" font-weight="400">6</text><rect x="575" y="479" width="142" height="35" fill="#bdd6dc"/><text x="590" y="501" font-family="Arial,sans-serif" font-size="16" fill="#172033" font-weight="400">3</text><rect x="720" y="479" width="142" height="35" fill="#abcbd4"/><text x="735" y="501" font-family="Arial,sans-serif" font-size="16" fill="#172033" font-weight="400">4</text><rect x="865" y="479" width="142" height="35" fill="#bdd6dc"/><text x="880" y="501" font-family="Arial,sans-serif" font-size="16" fill="#172033" font-weight="400">3</text><text x="30" y="538" font-family="Arial,sans-serif" font-size="15" fill="#172033" font-weight="400">Preprocessing</text><rect x="285" y="517" width="142" height="35" fill="#4e98ac"/><text x="300" y="539" font-family="Arial,sans-serif" font-size="16" fill="white" font-weight="400">9</text><rect x="430" y="517" width="142" height="35" fill="#86b7c4"/><text x="445" y="539" font-family="Arial,sans-serif" font-size="16" fill="#172033" font-weight="400">6</text><rect x="575" y="517" width="142" height="35" fill="#e2eaec"/><text x="590" y="539" font-family="Arial,sans-serif" font-size="16" fill="#172033" font-weight="400">1</text><rect x="720" y="517" width="142" height="35" fill="#f5f5f5"/><text x="735" y="539" font-family="Arial,sans-serif" font-size="16" fill="#172033" font-weight="400">0</text><rect x="865" y="517" width="142" height="35" fill="#bdd6dc"/><text x="880" y="539" font-family="Arial,sans-serif" font-size="16" fill="#172033" font-weight="400">3</text><text x="30" y="576" font-family="Arial,sans-serif" font-size="15" fill="#172033" font-weight="400">Uses</text><rect x="285" y="555" width="142" height="35" fill="#61a2b4"/><text x="300" y="577" font-family="Arial,sans-serif" font-size="16" fill="#172033" font-weight="400">8</text><rect x="430" y="555" width="142" height="35" fill="#abcbd4"/><text x="445" y="577" font-family="Arial,sans-serif" font-size="16" fill="#172033" font-weight="400">4</text><rect x="575" y="555" width="142" height="35" fill="#e2eaec"/><text x="590" y="577" font-family="Arial,sans-serif" font-size="16" fill="#172033" font-weight="400">1</text><rect x="720" y="555" width="142" height="35" fill="#f5f5f5"/><text x="735" y="577" font-family="Arial,sans-serif" font-size="16" fill="#172033" font-weight="400">0</text><rect x="865" y="555" width="142" height="35" fill="#d0e0e4"/><text x="880" y="577" font-family="Arial,sans-serif" font-size="16" fill="#172033" font-weight="400">2</text><text x="30" y="614" font-family="Arial,sans-serif" font-size="15" fill="#172033" font-weight="400">Variables</text><rect x="285" y="593" width="142" height="35" fill="#3b8da4"/><text x="300" y="615" font-family="Arial,sans-serif" font-size="16" fill="white" font-weight="400">10</text><rect x="430" y="593" width="142" height="35" fill="#f5f5f5"/><text x="445" y="615" font-family="Arial,sans-serif" font-size="16" fill="#172033" font-weight="400">0</text><rect x="575" y="593" width="142" height="35" fill="#f5f5f5"/><text x="590" y="615" font-family="Arial,sans-serif" font-size="16" fill="#172033" font-weight="400">0</text><rect x="720" y="593" width="142" height="35" fill="#f5f5f5"/><text x="735" y="615" font-family="Arial,sans-serif" font-size="16" fill="#172033" font-weight="400">0</text><rect x="865" y="593" width="142" height="35" fill="#f5f5f5"/><text x="880" y="615" font-family="Arial,sans-serif" font-size="16" fill="#172033" font-weight="400">0</text><text x="30" y="661" font-family="Arial,sans-serif" font-size="14" fill="#172033" font-weight="400">A comment can implicate several sections. Class-range mapping uses the retained schema crosswalk; counts cannot be summed as errors.</text></svg>