<svg xmlns="http://www.w3.org/2000/svg" width="1250" height="636"><rect width="100%" height="100%" fill="white"/><text x="30" y="47" font-family="Arial,sans-serif" font-size="27" fill="#172033" font-weight="700">v8 source associations vary by dataset</text><text x="30" y="78" font-family="Arial,sans-serif" font-size="16" fill="#526277" font-weight="400">Within-record, within-section flagged-field-rate difference (pp): source-linked fields minus other receipt-linked fields.</text><text x="357" y="119" font-family="Arial,sans-serif" font-size="14" fill="#172033" font-weight="700">AI_READI</text><text x="502" y="119" font-family="Arial,sans-serif" font-size="14" fill="#172033" font-weight="700">CHORUS</text><text x="647" y="119" font-family="Arial,sans-serif" font-size="14" fill="#172033" font-weight="700">CM4AI</text><text x="792" y="119" font-family="Arial,sans-serif" font-size="14" fill="#172033" font-weight="700">VOICE</text><text x="30" y="158" font-family="Arial,sans-serif" font-size="15" fill="#172033" font-weight="400">NIH project page / Completeness</text><rect x="352" y="137" width="142" height="35" fill="#d2e1e5"/><text x="367" y="159" font-family="Arial,sans-serif" font-size="16" fill="#172033" font-weight="400">+7.8</text><rect x="497" y="137" width="142" height="35" fill="#f1eae9"/><text x="512" y="159" font-family="Arial,sans-serif" font-size="16" fill="#172033" font-weight="400">-3.2</text><rect x="642" y="137" width="142" height="35" fill="#aacbd4"/><text x="657" y="159" font-family="Arial,sans-serif" font-size="16" fill="#172033" font-weight="400">+16.7</text><rect x="787" y="137" width="142" height="35" fill="#98c1cc"/><text x="802" y="159" font-family="Arial,sans-serif" font-size="16" fill="#172033" font-weight="400">+20.9</text><text x="30" y="196" font-family="Arial,sans-serif" font-size="15" fill="#172033" font-weight="400">NIH project page / Accuracy/correctness</text><rect x="352" y="175" width="142" height="35" fill="#64a4b5"/><text x="367" y="197" font-family="Arial,sans-serif" font-size="16" fill="#172033" font-weight="400">+32.6</text><rect x="497" y="175" width="142" height="35" fill="#ecdad7"/><text x="512" y="197" font-family="Arial,sans-serif" font-size="16" fill="#172033" font-weight="400">-8.2</text><rect x="642" y="175" width="142" height="35" fill="#c9dce2"/><text x="657" y="197" font-family="Arial,sans-serif" font-size="16" fill="#172033" font-weight="400">+9.7</text><rect x="787" y="175" width="142" height="35" fill="#7fb3c1"/><text x="802" y="197" font-family="Arial,sans-serif" font-size="16" fill="#172033" font-weight="400">+26.5</text><text x="30" y="234" font-family="Arial,sans-serif" font-size="15" fill="#172033" font-weight="400">NIH project page / Consistency</text><rect x="352" y="213" width="142" height="35" fill="#559baf"/><text x="367" y="235" font-family="Arial,sans-serif" font-size="16" fill="white" font-weight="400">+36.0</text><rect x="497" y="213" width="142" height="35" fill="#f3f4f4"/><text x="512" y="235" font-family="Arial,sans-serif" font-size="16" fill="#172033" font-weight="400">+0.4</text><rect x="642" y="213" width="142" height="35" fill="#efe3e1"/><text x="657" y="235" font-family="Arial,sans-serif" font-size="16" fill="#172033" font-weight="400">-5.6</text><rect x="787" y="213" width="142" height="35" fill="#d4e2e6"/><text x="802" y="235" font-family="Arial,sans-serif" font-size="16" fill="#172033" font-weight="400">+7.3</text><text x="30" y="272" font-family="Arial,sans-serif" font-size="15" fill="#172033" font-weight="400">data resource / Completeness</text><rect x="352" y="251" width="142" height="35" fill="#c3d9df"/><text x="367" y="273" font-family="Arial,sans-serif" font-size="16" fill="#172033" font-weight="400">+11.3</text><rect x="497" y="251" width="142" height="35" fill="#edf0f3"/><text x="512" y="273" font-family="Arial,sans-serif" font-size="16" fill="#172033" font-weight="400">N/A</text><rect x="642" y="251" width="142" height="35" fill="#eee2e0"/><text x="657" y="273" font-family="Arial,sans-serif" font-size="16" fill="#172033" font-weight="400">-5.6</text><rect x="787" y="251" width="142" height="35" fill="#c1d8de"/><text x="802" y="273" font-family="Arial,sans-serif" font-size="16" fill="#172033" font-weight="400">+11.6</text><text x="30" y="310" font-family="Arial,sans-serif" font-size="15" fill="#172033" font-weight="400">data resource / Accuracy/correctness</text><rect x="352" y="289" width="142" height="35" fill="#81b4c2"/><text x="367" y="311" font-family="Arial,sans-serif" font-size="16" fill="#172033" font-weight="400">+26.1</text><rect x="497" y="289" width="142" height="35" fill="#edf0f3"/><text x="512" y="311" font-family="Arial,sans-serif" font-size="16" fill="#172033" font-weight="400">N/A</text><rect x="642" y="289" width="142" height="35" fill="#d5e3e7"/><text x="657" y="311" font-family="Arial,sans-serif" font-size="16" fill="#172033" font-weight="400">+7.1</text><rect x="787" y="289" width="142" height="35" fill="#f4f4f3"/><text x="802" y="311" font-family="Arial,sans-serif" font-size="16" fill="#172033" font-weight="400">-0.3</text><text x="30" y="348" font-family="Arial,sans-serif" font-size="15" fill="#172033" font-weight="400">data resource / Consistency</text><rect x="352" y="327" width="142" height="35" fill="#96c0cb"/><text x="367" y="349" font-family="Arial,sans-serif" font-size="16" fill="#172033" font-weight="400">+21.3</text><rect x="497" y="327" width="142" height="35" fill="#edf0f3"/><text x="512" y="349" font-family="Arial,sans-serif" font-size="16" fill="#172033" font-weight="400">N/A</text><rect x="642" y="327" width="142" height="35" fill="#c7dbe1"/><text x="657" y="349" font-family="Arial,sans-serif" font-size="16" fill="#172033" font-weight="400">+10.3</text><rect x="787" y="327" width="142" height="35" fill="#f3efee"/><text x="802" y="349" font-family="Arial,sans-serif" font-size="16" fill="#172033" font-weight="400">-1.7</text><text x="30" y="386" font-family="Arial,sans-serif" font-size="15" fill="#172033" font-weight="400">documentation / Completeness</text><rect x="352" y="365" width="142" height="35" fill="#a9cad4"/><text x="367" y="387" font-family="Arial,sans-serif" font-size="16" fill="#172033" font-weight="400">+16.9</text><rect x="497" y="365" width="142" height="35" fill="#bfd7dd"/><text x="512" y="387" font-family="Arial,sans-serif" font-size="16" fill="#172033" font-weight="400">+12.1</text><rect x="642" y="365" width="142" height="35" fill="#91bdc9"/><text x="657" y="387" font-family="Arial,sans-serif" font-size="16" fill="#172033" font-weight="400">+22.5</text><rect x="787" y="365" width="142" height="35" fill="#ecdcd9"/><text x="802" y="387" font-family="Arial,sans-serif" font-size="16" fill="#172033" font-weight="400">-7.8</text><text x="30" y="424" font-family="Arial,sans-serif" font-size="15" fill="#172033" font-weight="400">documentation / Accuracy/correctness</text><rect x="352" y="403" width="142" height="35" fill="#dce7ea"/><text x="367" y="425" font-family="Arial,sans-serif" font-size="16" fill="#172033" font-weight="400">+5.4</text><rect x="497" y="403" width="142" height="35" fill="#84b6c3"/><text x="512" y="425" font-family="Arial,sans-serif" font-size="16" fill="#172033" font-weight="400">+25.3</text><rect x="642" y="403" width="142" height="35" fill="#559baf"/><text x="657" y="425" font-family="Arial,sans-serif" font-size="16" fill="white" font-weight="400">+36.0</text><rect x="787" y="403" width="142" height="35" fill="#dce7ea"/><text x="802" y="425" font-family="Arial,sans-serif" font-size="16" fill="#172033" font-weight="400">+5.6</text><text x="30" y="462" font-family="Arial,sans-serif" font-size="15" fill="#172033" font-weight="400">documentation / Consistency</text><rect x="352" y="441" width="142" height="35" fill="#e8cfcb"/><text x="367" y="463" font-family="Arial,sans-serif" font-size="16" fill="#172033" font-weight="400">-11.6</text><rect x="497" y="441" width="142" height="35" fill="#d0e0e5"/><text x="512" y="463" font-family="Arial,sans-serif" font-size="16" fill="#172033" font-weight="400">+8.1</text><rect x="642" y="441" width="142" height="35" fill="#bbd4db"/><text x="657" y="463" font-family="Arial,sans-serif" font-size="16" fill="#172033" font-weight="400">+13.0</text><rect x="787" y="441" width="142" height="35" fill="#ecdbd8"/><text x="802" y="463" font-family="Arial,sans-serif" font-size="16" fill="#172033" font-weight="400">-7.9</text><text x="30" y="500" font-family="Arial,sans-serif" font-size="15" fill="#172033" font-weight="400">publication / Completeness</text><rect x="352" y="479" width="142" height="35" fill="#a8cad3"/><text x="367" y="501" font-family="Arial,sans-serif" font-size="16" fill="#172033" font-weight="400">+17.2</text><rect x="497" y="479" width="142" height="35" fill="#edf0f3"/><text x="512" y="501" font-family="Arial,sans-serif" font-size="16" fill="#172033" font-weight="400">N/A</text><rect x="642" y="479" width="142" height="35" fill="#8fbcc8"/><text x="657" y="501" font-family="Arial,sans-serif" font-size="16" fill="#172033" font-weight="400">+22.9</text><rect x="787" y="479" width="142" height="35" fill="#a7c9d2"/><text x="802" y="501" font-family="Arial,sans-serif" font-size="16" fill="#172033" font-weight="400">+17.5</text><text x="30" y="538" font-family="Arial,sans-serif" font-size="15" fill="#172033" font-weight="400">publication / Accuracy/correctness</text><rect x="352" y="517" width="142" height="35" fill="#f1ebea"/><text x="367" y="539" font-family="Arial,sans-serif" font-size="16" fill="#172033" font-weight="400">-3.0</text><rect x="497" y="517" width="142" height="35" fill="#edf0f3"/><text x="512" y="539" font-family="Arial,sans-serif" font-size="16" fill="#172033" font-weight="400">N/A</text><rect x="642" y="517" width="142" height="35" fill="#f2eeed"/><text x="657" y="539" font-family="Arial,sans-serif" font-size="16" fill="#172033" font-weight="400">-2.1</text><rect x="787" y="517" width="142" height="35" fill="#f3f0f0"/><text x="802" y="539" font-family="Arial,sans-serif" font-size="16" fill="#172033" font-weight="400">-1.3</text><text x="30" y="576" font-family="Arial,sans-serif" font-size="15" fill="#172033" font-weight="400">publication / Consistency</text><rect x="352" y="555" width="142" height="35" fill="#d3e2e6"/><text x="367" y="577" font-family="Arial,sans-serif" font-size="16" fill="#172033" font-weight="400">+7.5</text><rect x="497" y="555" width="142" height="35" fill="#edf0f3"/><text x="512" y="577" font-family="Arial,sans-serif" font-size="16" fill="#172033" font-weight="400">N/A</text><rect x="642" y="555" width="142" height="35" fill="#4592a8"/><text x="657" y="577" font-family="Arial,sans-serif" font-size="16" fill="white" font-weight="400">+39.6</text><rect x="787" y="555" width="142" height="35" fill="#d4e3e7"/><text x="802" y="577" font-family="Arial,sans-serif" font-size="16" fill="#172033" font-weight="400">+7.2</text><text x="30" y="623" font-family="Arial,sans-serif" font-size="14" fill="#172033" font-weight="400">Descriptive associations, not source-caused errors. Equal eligible-section and then record weighting; at most 3 records per dataset.</text></svg>