<?xml version="1.0" encoding="UTF-8"?>
<svg xmlns="http://www.w3.org/2000/svg" viewBox="0 0 2400 900" font-family="Arial, sans-serif">

  <defs>
    <marker id="arr" markerWidth="14" markerHeight="14" refX="11" refY="6" orient="auto">
      <path d="M0,0 L12,6 L0,12 z" fill="#555"/>
    </marker>
    <filter id="shadow" x="-10%" y="-10%" width="120%" height="120%">
      <feGaussianBlur in="SourceAlpha" stdDeviation="4"/>
      <feOffset dx="3" dy="4" result="off"/>
      <feComponentTransfer><feFuncA type="linear" slope="0.4"/></feComponentTransfer>
      <feMerge><feMergeNode/><feMergeNode in="SourceGraphic"/></feMerge>
    </filter>

    <!-- Reusable stick figure -->
    <symbol id="person" viewBox="0 0 80 140">
      <circle cx="40" cy="22" r="18" fill="#FFE0B2" stroke="#5D4037" stroke-width="3"/>
      <path d="M 40 40 L 40 95" stroke="#5D4037" stroke-width="5" fill="none" stroke-linecap="round"/>
      <path d="M 40 55 L 16 80" stroke="#5D4037" stroke-width="5" fill="none" stroke-linecap="round"/>
      <path d="M 40 55 L 64 80" stroke="#5D4037" stroke-width="5" fill="none" stroke-linecap="round"/>
      <path d="M 40 95 L 22 130" stroke="#5D4037" stroke-width="5" fill="none" stroke-linecap="round"/>
      <path d="M 40 95 L 58 130" stroke="#5D4037" stroke-width="5" fill="none" stroke-linecap="round"/>
    </symbol>

    <!-- Reusable cardboard box of documents -->
    <symbol id="docbox" viewBox="0 0 200 140">
      <!-- box body -->
      <path d="M 10 30 L 190 30 L 190 130 L 10 130 z" fill="#D7B98E" stroke="#7B5E3B" stroke-width="3"/>
      <!-- box top flap (open) -->
      <path d="M 10 30 L 50 10 L 190 10 L 150 30 z" fill="#C7A87A" stroke="#7B5E3B" stroke-width="3"/>
      <path d="M 50 10 L 50 30" stroke="#7B5E3B" stroke-width="2"/>
      <!-- documents peeking out -->
      <rect x="60" y="-5" width="35" height="38" fill="white" stroke="#444" stroke-width="2"/>
      <line x1="65" y1="6" x2="90" y2="6" stroke="#888" stroke-width="1.5"/>
      <line x1="65" y1="14" x2="90" y2="14" stroke="#888" stroke-width="1.5"/>
      <line x1="65" y1="22" x2="85" y2="22" stroke="#888" stroke-width="1.5"/>
      <rect x="105" y="0" width="35" height="35" fill="white" stroke="#444" stroke-width="2"/>
      <line x1="110" y1="10" x2="135" y2="10" stroke="#888" stroke-width="1.5"/>
      <line x1="110" y1="18" x2="135" y2="18" stroke="#888" stroke-width="1.5"/>
      <line x1="110" y1="26" x2="130" y2="26" stroke="#888" stroke-width="1.5"/>
    </symbol>

    <!-- Reusable robot -->
    <symbol id="robot" viewBox="0 0 280 360">
      <!-- antenna -->
      <line x1="140" y1="10" x2="140" y2="40" stroke="#1565C0" stroke-width="4"/>
      <circle cx="140" cy="10" r="8" fill="#F57C00"/>
      <!-- head -->
      <rect x="60" y="40" width="160" height="120" rx="14" fill="#90CAF9" stroke="#1565C0" stroke-width="4"/>
      <!-- eyes -->
      <circle cx="105" cy="95" r="14" fill="white" stroke="#1565C0" stroke-width="3"/>
      <circle cx="175" cy="95" r="14" fill="white" stroke="#1565C0" stroke-width="3"/>
      <circle cx="108" cy="95" r="6" fill="#1565C0"/>
      <circle cx="178" cy="95" r="6" fill="#1565C0"/>
      <!-- mouth -->
      <rect x="105" y="125" width="70" height="14" rx="5" fill="white" stroke="#1565C0" stroke-width="2.5"/>
      <line x1="115" y1="125" x2="115" y2="139" stroke="#1565C0" stroke-width="1.5"/>
      <line x1="125" y1="125" x2="125" y2="139" stroke="#1565C0" stroke-width="1.5"/>
      <line x1="135" y1="125" x2="135" y2="139" stroke="#1565C0" stroke-width="1.5"/>
      <line x1="145" y1="125" x2="145" y2="139" stroke="#1565C0" stroke-width="1.5"/>
      <line x1="155" y1="125" x2="155" y2="139" stroke="#1565C0" stroke-width="1.5"/>
      <line x1="165" y1="125" x2="165" y2="139" stroke="#1565C0" stroke-width="1.5"/>
      <!-- body -->
      <rect x="40" y="170" width="200" height="140" rx="14" fill="#BBDEFB" stroke="#1565C0" stroke-width="4"/>
      <!-- chest panel -->
      <rect x="100" y="200" width="80" height="80" rx="8" fill="white" stroke="#1565C0" stroke-width="3"/>
      <text x="140" y="232" text-anchor="middle" font-size="20" font-weight="bold" fill="#1565C0">D4D</text>
      <text x="140" y="260" text-anchor="middle" font-size="16" fill="#1565C0">agent</text>
      <!-- arms -->
      <rect x="10" y="180" width="30" height="100" rx="8" fill="#90CAF9" stroke="#1565C0" stroke-width="3"/>
      <rect x="240" y="180" width="30" height="100" rx="8" fill="#90CAF9" stroke="#1565C0" stroke-width="3"/>
      <!-- gear icons (working indicator) -->
      <circle cx="60" cy="335" r="14" fill="#FFEAD4" stroke="#F57C00" stroke-width="3"/>
      <circle cx="60" cy="335" r="5" fill="#F57C00"/>
      <circle cx="220" cy="335" r="14" fill="#FFEAD4" stroke="#F57C00" stroke-width="3"/>
      <circle cx="220" cy="335" r="5" fill="#F57C00"/>
    </symbol>

    <!-- Reusable beautiful record card -->
    <symbol id="record" viewBox="0 0 280 180">
      <rect x="6" y="6" width="270" height="170" rx="8" fill="white" stroke="#1976D2" stroke-width="3" filter="url(#shadow)"/>
      <!-- header bar -->
      <rect x="6" y="6" width="270" height="34" rx="8" fill="#1976D2"/>
      <rect x="6" y="22" width="270" height="18" fill="#1976D2"/>
      <!-- title -->
      <text x="20" y="29" font-size="16" font-weight="bold" fill="white">D4D-Core record</text>
      <!-- content lines -->
      <line x1="20" y1="58" x2="100" y2="58" stroke="#666" stroke-width="2.5"/>
      <line x1="20" y1="74" x2="240" y2="74" stroke="#bbb" stroke-width="2"/>
      <line x1="20" y1="86" x2="220" y2="86" stroke="#bbb" stroke-width="2"/>
      <line x1="20" y1="98" x2="200" y2="98" stroke="#bbb" stroke-width="2"/>
      <line x1="20" y1="118" x2="100" y2="118" stroke="#666" stroke-width="2.5"/>
      <line x1="20" y1="134" x2="240" y2="134" stroke="#bbb" stroke-width="2"/>
      <line x1="20" y1="146" x2="210" y2="146" stroke="#bbb" stroke-width="2"/>
      <line x1="20" y1="158" x2="180" y2="158" stroke="#bbb" stroke-width="2"/>
      <!-- check sparkle -->
      <circle cx="252" cy="158" r="14" fill="#E2F2E3" stroke="#388E3C" stroke-width="2"/>
      <path d="M 245 158 L 250 163 L 259 153" stroke="#388E3C" stroke-width="3" fill="none" stroke-linecap="round"/>
    </symbol>
  </defs>

  <!-- ─────────── LEFT COLUMN: humans with boxes ─────────── -->
  <g transform="translate(60, 60)">
    <text x="180" y="-15" text-anchor="middle" font-size="34" font-weight="bold" fill="#444">Heterogeneous sources</text>
    <use href="#person" x="0"   y="20"  width="80" height="140"/>
    <use href="#docbox" x="100" y="55"  width="220" height="160"/>
    <text x="210" y="245" text-anchor="middle" font-size="22" font-weight="bold" fill="#5D4037">PDFs · papers</text>

    <use href="#person" x="0"   y="290" width="80" height="140"/>
    <use href="#docbox" x="100" y="325" width="220" height="160"/>
    <text x="210" y="515" text-anchor="middle" font-size="22" font-weight="bold" fill="#5D4037">URLs · web pages</text>

    <use href="#person" x="0"   y="560" width="80" height="140"/>
    <use href="#docbox" x="100" y="595" width="220" height="160"/>
    <text x="210" y="785" text-anchor="middle" font-size="22" font-weight="bold" fill="#5D4037">dataset descriptions</text>
  </g>

  <!-- ─────────── ARROWS from each human to robot ─────────── -->
  <path d="M 400,180  C 600,250 700,300 870,420" stroke="#777" stroke-width="5" fill="none" marker-end="url(#arr)" stroke-linecap="round"/>
  <path d="M 400,450  L 870,450" stroke="#777" stroke-width="5" fill="none" marker-end="url(#arr)" stroke-linecap="round"/>
  <path d="M 400,720  C 600,650 700,580 870,480" stroke="#777" stroke-width="5" fill="none" marker-end="url(#arr)" stroke-linecap="round"/>

  <!-- ─────────── CENTER: robot ─────────── -->
  <g transform="translate(900, 220)">
    <use href="#robot" x="0" y="0" width="320" height="420"/>
    <text x="160" y="470" text-anchor="middle" font-size="30" font-weight="bold" fill="#1565C0">D4D Agent &amp; Assistant</text>
    <text x="160" y="505" text-anchor="middle" font-size="22" fill="#444">parse · synthesize · validate · align · render</text>
  </g>

  <!-- ─────────── ARROW to outputs ─────────── -->
  <path d="M 1300,440 L 1620,440" stroke="#777" stroke-width="6" fill="none" marker-end="url(#arr)" stroke-linecap="round"/>
  <text x="1460" y="425" text-anchor="middle" font-size="22" font-style="italic" fill="#666">structured · validated · shareable</text>

  <!-- ─────────── RIGHT: output records ─────────── -->
  <g transform="translate(1640, 60)">
    <text x="380" y="-15" text-anchor="middle" font-size="34" font-weight="bold" fill="#444">Beautiful, computable D4D records</text>
    <use href="#record" x="0"   y="20"  width="370" height="220"/>
    <text x="185" y="270" text-anchor="middle" font-size="22" font-weight="bold" fill="#1976D2">AI-READI</text>

    <use href="#record" x="380" y="20"  width="370" height="220"/>
    <text x="565" y="270" text-anchor="middle" font-size="22" font-weight="bold" fill="#1976D2">CHORUS</text>

    <use href="#record" x="0"   y="320" width="370" height="220"/>
    <text x="185" y="570" text-anchor="middle" font-size="22" font-weight="bold" fill="#1976D2">CM4AI</text>

    <use href="#record" x="380" y="320" width="370" height="220"/>
    <text x="565" y="570" text-anchor="middle" font-size="22" font-weight="bold" fill="#1976D2">VOICE</text>

    <text x="380" y="640" text-anchor="middle" font-size="24" font-style="italic" fill="#666">YAML + HTML, sssom-py-validated, RO-Crate compatible</text>
  </g>
</svg>
