<?xml version="1.0" encoding="UTF-8"?>
<svg xmlns="http://www.w3.org/2000/svg" viewBox="0 0 2400 900" font-family="Arial, sans-serif">

  <defs>
    <marker id="arr" markerWidth="14" markerHeight="14" refX="11" refY="6" orient="auto">
      <path d="M0,0 L12,6 L0,12 z" fill="#555"/>
    </marker>
    <marker id="arr-red" markerWidth="18" markerHeight="18" refX="14" refY="9"
            orient="auto" markerUnits="userSpaceOnUse">
      <path d="M0,0 L16,9 L0,18 z" fill="#D32F2F"/>
    </marker>
    <filter id="shadow" x="-10%" y="-10%" width="120%" height="120%">
      <feGaussianBlur in="SourceAlpha" stdDeviation="4"/>
      <feOffset dx="3" dy="4" result="off"/>
      <feComponentTransfer><feFuncA type="linear" slope="0.4"/></feComponentTransfer>
      <feMerge><feMergeNode/><feMergeNode in="SourceGraphic"/></feMerge>
    </filter>

    <!-- Reusable stick figure -->
    <symbol id="person" viewBox="0 0 80 140">
      <circle cx="40" cy="22" r="18" fill="#FFE0B2" stroke="#5D4037" stroke-width="3"/>
      <path d="M 40 40 L 40 95" stroke="#5D4037" stroke-width="5" fill="none" stroke-linecap="round"/>
      <path d="M 40 55 L 16 80" stroke="#5D4037" stroke-width="5" fill="none" stroke-linecap="round"/>
      <path d="M 40 55 L 64 80" stroke="#5D4037" stroke-width="5" fill="none" stroke-linecap="round"/>
      <path d="M 40 95 L 22 130" stroke="#5D4037" stroke-width="5" fill="none" stroke-linecap="round"/>
      <path d="M 40 95 L 58 130" stroke="#5D4037" stroke-width="5" fill="none" stroke-linecap="round"/>
    </symbol>

    <!-- Reusable cardboard box of documents -->
    <symbol id="docbox" viewBox="0 0 200 140">
      <!-- box body -->
      <path d="M 10 30 L 190 30 L 190 130 L 10 130 z" fill="#D7B98E" stroke="#7B5E3B" stroke-width="3"/>
      <!-- box top flap (open) -->
      <path d="M 10 30 L 50 10 L 190 10 L 150 30 z" fill="#C7A87A" stroke="#7B5E3B" stroke-width="3"/>
      <path d="M 50 10 L 50 30" stroke="#7B5E3B" stroke-width="2"/>
      <!-- documents peeking out -->
      <rect x="60" y="-5" width="35" height="38" fill="white" stroke="#444" stroke-width="2"/>
      <line x1="65" y1="6" x2="90" y2="6" stroke="#888" stroke-width="1.5"/>
      <line x1="65" y1="14" x2="90" y2="14" stroke="#888" stroke-width="1.5"/>
      <line x1="65" y1="22" x2="85" y2="22" stroke="#888" stroke-width="1.5"/>
      <rect x="105" y="0" width="35" height="35" fill="white" stroke="#444" stroke-width="2"/>
      <line x1="110" y1="10" x2="135" y2="10" stroke="#888" stroke-width="1.5"/>
      <line x1="110" y1="18" x2="135" y2="18" stroke="#888" stroke-width="1.5"/>
      <line x1="110" y1="26" x2="130" y2="26" stroke="#888" stroke-width="1.5"/>
    </symbol>

    <!-- Reusable robot (extended viewBox to fit angled multi-arms) -->
    <symbol id="robot" viewBox="-50 0 380 360">
      <!-- antenna -->
      <line x1="140" y1="10" x2="140" y2="25" stroke="#1565C0" stroke-width="4"/>
      <circle cx="140" cy="10" r="9" fill="#D32F2F" stroke="#7A1313" stroke-width="1.5"/>
      <!-- head (taller, to fit the D4D headband at top) -->
      <rect x="60" y="25" width="160" height="140" rx="14" fill="#90CAF9" stroke="#1565C0" stroke-width="4"/>
      <!-- red headband with white "D4D" letters -->
      <path d="M 60,39 Q 60,25 74,25 L 206,25 Q 220,25 220,39 L 220,60 L 60,60 Z"
            fill="#D32F2F" stroke="#1565C0" stroke-width="4"/>
      <text x="140" y="53" text-anchor="middle" font-size="26" font-weight="bold"
            fill="white" letter-spacing="3">D4D</text>
      <!-- eyes -->
      <circle cx="105" cy="95" r="14" fill="white" stroke="#1565C0" stroke-width="3"/>
      <circle cx="175" cy="95" r="14" fill="white" stroke="#1565C0" stroke-width="3"/>
      <circle cx="108" cy="95" r="6" fill="#1565C0"/>
      <circle cx="178" cy="95" r="6" fill="#1565C0"/>
      <!-- mouth -->
      <rect x="105" y="125" width="70" height="14" rx="5" fill="white" stroke="#1565C0" stroke-width="2.5"/>
      <line x1="115" y1="125" x2="115" y2="139" stroke="#1565C0" stroke-width="1.5"/>
      <line x1="125" y1="125" x2="125" y2="139" stroke="#1565C0" stroke-width="1.5"/>
      <line x1="135" y1="125" x2="135" y2="139" stroke="#1565C0" stroke-width="1.5"/>
      <line x1="145" y1="125" x2="145" y2="139" stroke="#1565C0" stroke-width="1.5"/>
      <line x1="155" y1="125" x2="155" y2="139" stroke="#1565C0" stroke-width="1.5"/>
      <line x1="165" y1="125" x2="165" y2="139" stroke="#1565C0" stroke-width="1.5"/>
      <!-- body -->
      <rect x="40" y="170" width="200" height="140" rx="14" fill="#BBDEFB" stroke="#1565C0" stroke-width="4"/>
      <!-- chest panel — red background, white "D4D agent" text (matches headband) -->
      <rect x="100" y="200" width="80" height="80" rx="8" fill="#D32F2F" stroke="#1565C0" stroke-width="3"/>
      <text x="140" y="233" text-anchor="middle" font-size="24" font-weight="bold" fill="white">D4D</text>
      <text x="140" y="263" text-anchor="middle" font-size="22" fill="white">agent</text>
      <!-- LEFT arms: top points UP, middle points LEFT, bottom points DOWN -->
      <g transform="rotate(90 40 175)">
        <rect x="-50" y="169" width="90" height="14" rx="7" fill="#90CAF9" stroke="#1565C0" stroke-width="3"/>
      </g>
      <rect x="-50" y="234" width="90" height="14" rx="7" fill="#90CAF9" stroke="#1565C0" stroke-width="3"/>
      <g transform="rotate(-90 40 305)">
        <rect x="-50" y="299" width="90" height="14" rx="7" fill="#90CAF9" stroke="#1565C0" stroke-width="3"/>
      </g>
      <!-- RIGHT side: just one arm in the middle, pointing right -->
      <rect x="240" y="234" width="90" height="14" rx="7" fill="#90CAF9" stroke="#1565C0" stroke-width="3"/>
      <!-- gear icons (working indicator) — black -->
      <circle cx="60" cy="335" r="14" fill="#222222" stroke="#000000" stroke-width="3"/>
      <circle cx="60" cy="335" r="5" fill="#000000"/>
      <circle cx="220" cy="335" r="14" fill="#222222" stroke="#000000" stroke-width="3"/>
      <circle cx="220" cy="335" r="5" fill="#000000"/>
    </symbol>

    <!-- Reusable beautiful record card -->
    <symbol id="record" viewBox="0 0 280 180">
      <rect x="6" y="6" width="270" height="170" rx="8" fill="white" stroke="#1976D2" stroke-width="3" filter="url(#shadow)"/>
      <!-- header bar -->
      <rect x="6" y="6" width="270" height="34" rx="8" fill="#1976D2"/>
      <rect x="6" y="22" width="270" height="18" fill="#1976D2"/>
      <!-- title -->
      <text x="20" y="30" font-size="22" font-weight="bold" fill="white">D4D-Core record</text>
      <!-- content lines -->
      <line x1="20" y1="58" x2="100" y2="58" stroke="#666" stroke-width="2.5"/>
      <line x1="20" y1="74" x2="240" y2="74" stroke="#bbb" stroke-width="2"/>
      <line x1="20" y1="86" x2="220" y2="86" stroke="#bbb" stroke-width="2"/>
      <line x1="20" y1="98" x2="200" y2="98" stroke="#bbb" stroke-width="2"/>
      <line x1="20" y1="118" x2="100" y2="118" stroke="#666" stroke-width="2.5"/>
      <line x1="20" y1="134" x2="240" y2="134" stroke="#bbb" stroke-width="2"/>
      <line x1="20" y1="146" x2="210" y2="146" stroke="#bbb" stroke-width="2"/>
      <line x1="20" y1="158" x2="180" y2="158" stroke="#bbb" stroke-width="2"/>
      <!-- check sparkle -->
      <circle cx="252" cy="158" r="14" fill="#E2F2E3" stroke="#388E3C" stroke-width="2"/>
      <path d="M 245 158 L 250 163 L 259 153" stroke="#388E3C" stroke-width="3" fill="none" stroke-linecap="round"/>
    </symbol>
  </defs>

  <!-- ─────────── LEFT COLUMN: humans with boxes ─────────── -->
  <g transform="translate(60, 60)">
    <text x="180" y="-15" text-anchor="middle" font-size="36" font-weight="bold" fill="#444">Heterogeneous sources</text>

    <!-- Row 1: PDFs · papers — small crowd of bigger people, smaller box -->
    <use href="#person" x="-65" y="40" width="80" height="150" opacity="0.55"/>
    <use href="#person" x="-30" y="20" width="95" height="170" opacity="0.75"/>
    <use href="#person" x="10"  y="0"  width="115" height="200"/>
    <use href="#person" x="80"  y="35" width="80" height="150" opacity="0.55"/>
    <use href="#docbox" x="160" y="65"  width="170" height="120"/>
    <text x="245" y="225" text-anchor="middle" font-size="24" font-weight="bold" fill="#5D4037">PDFs · papers</text>

    <!-- Row 2: URLs · web pages -->
    <use href="#person" x="-65" y="310" width="80" height="150" opacity="0.55"/>
    <use href="#person" x="-30" y="290" width="95" height="170" opacity="0.75"/>
    <use href="#person" x="10"  y="270" width="115" height="200"/>
    <use href="#person" x="80"  y="305" width="80" height="150" opacity="0.55"/>
    <use href="#docbox" x="160" y="335"  width="170" height="120"/>
    <text x="245" y="495" text-anchor="middle" font-size="24" font-weight="bold" fill="#5D4037">URLs · web pages</text>

    <!-- Row 3: dataset descriptions -->
    <use href="#person" x="-65" y="580" width="80" height="150" opacity="0.55"/>
    <use href="#person" x="-30" y="560" width="95" height="170" opacity="0.75"/>
    <use href="#person" x="10"  y="540" width="115" height="200"/>
    <use href="#person" x="80"  y="575" width="80" height="150" opacity="0.55"/>
    <use href="#docbox" x="160" y="605"  width="170" height="120"/>
    <text x="245" y="765" text-anchor="middle" font-size="24" font-weight="bold" fill="#5D4037">dataset descriptions</text>
  </g>

  <!-- ─────────── ARROWS from each human to robot (shortened) ─────────── -->
  <path d="M 400,180  C 540,250 640,300 800,420" stroke="#777" stroke-width="5" fill="none" marker-end="url(#arr)" stroke-linecap="round"/>
  <path d="M 400,450  L 800,450" stroke="#777" stroke-width="5" fill="none" marker-end="url(#arr)" stroke-linecap="round"/>
  <path d="M 400,720  C 540,650 640,580 800,480" stroke="#777" stroke-width="5" fill="none" marker-end="url(#arr)" stroke-linecap="round"/>

  <!-- ─────────── CENTER: robot (enlarged + multi-arm) ─────────── -->
  <g transform="translate(840, 180)">
    <use href="#robot" x="0" y="0" width="440" height="480"/>
    <text x="220" y="525" text-anchor="middle" font-size="34" font-weight="bold" fill="#1565C0">D4D Agent &amp; Assistant</text>
    <text x="220" y="560" text-anchor="middle" font-size="22" fill="#444">parse · synthesize · validate · align · render</text>
  </g>

  <!-- ─────────── AGENT → VALIDATOR → OUTPUTS, with feedback loop ─────────── -->
  <!-- agent → validator (short forward arrow) -->
  <path d="M 1300,440 L 1340,440" stroke="#777" stroke-width="6" fill="none" marker-end="url(#arr)" stroke-linecap="round"/>

  <!-- LinkML schema validator block (right of robot) -->
  <g transform="translate(1340, 380)">
    <rect x="0" y="0" width="190" height="120" rx="12" fill="#FFF3E0" stroke="#F57C00" stroke-width="4"/>
    <text x="95" y="38" text-anchor="middle" font-size="24" font-weight="bold" fill="#5D4037">LinkML</text>
    <text x="95" y="68" text-anchor="middle" font-size="24" font-weight="bold" fill="#5D4037">schema</text>
    <text x="95" y="96" text-anchor="middle" font-size="22" fill="#5D4037">validation</text>
  </g>

  <!-- validator → outputs (short forward arrow) -->
  <path d="M 1530,440 L 1610,440" stroke="#777" stroke-width="6" fill="none" marker-end="url(#arr)" stroke-linecap="round"/>

  <!-- feedback loop: validator → robot's red headlight (top of antenna).
       Antenna ball renders at approx (1075, 215) on the page, so we end
       the path right at it. -->
  <path d="M 1340,380 Q 1300,90 1075,215"
        stroke="#D32F2F" stroke-width="6" fill="none"
        stroke-dasharray="12,7"
        marker-end="url(#arr-red)" stroke-linecap="round"/>
  <text x="1280" y="55" text-anchor="middle" font-size="24" font-style="italic"
        font-weight="bold" fill="#D32F2F">errors → corrections</text>

  <!-- ─────────── RIGHT: output records ─────────── -->
  <g transform="translate(1640, 60)">
    <text x="380" y="-15" text-anchor="middle" font-size="36" font-weight="bold" fill="#444">Standardized, computable D4D records</text>
    <use href="#record" x="0"   y="20"  width="370" height="220"/>
    <text x="185" y="270" text-anchor="middle" font-size="24" font-weight="bold" fill="#1976D2">AI-READI</text>

    <use href="#record" x="380" y="20"  width="370" height="220"/>
    <text x="565" y="270" text-anchor="middle" font-size="24" font-weight="bold" fill="#1976D2">CHORUS</text>

    <use href="#record" x="0"   y="320" width="370" height="220"/>
    <text x="185" y="570" text-anchor="middle" font-size="24" font-weight="bold" fill="#1976D2">CM4AI</text>

    <use href="#record" x="380" y="320" width="370" height="220"/>
    <text x="565" y="570" text-anchor="middle" font-size="24" font-weight="bold" fill="#1976D2">VOICE</text>

    <text x="380" y="640" text-anchor="middle" font-size="24" font-style="italic" fill="#666">YAML + HTML, sssom-py-validated, RO-Crate compatible</text>
  </g>
</svg>
